<svg xmlns="http://www.w3.org/2000/svg" viewBox="0 0 316.543 342.742">
  <defs>
    <style>
      .cls-1 {
        fill: none;
        stroke: #eaa700;
        stroke-miterlimit: 10;
        stroke-width: 5px;
      }
    </style>
  </defs>
  <g id="Group_243" data-name="Group 243" transform="translate(-39.032 -355)">
    <circle id="Ellipse_16" data-name="Ellipse 16" class="cls-1" cx="133" cy="133" r="133" transform="translate(64 357.5)"/>
    <g id="Group_235" data-name="Group 235">
      <path id="Path_383" data-name="Path 383" class="cls-1" d="M89.3,568.3,43.5,647.6l53.4-2.8,24.3,47.7,42.3-73.4A132.248,132.248,0,0,1,89.3,568.3Z"/>
      <path id="Path_384" data-name="Path 384" class="cls-1" d="M305,567.9a132.476,132.476,0,0,1-74.1,51l42.5,73.5,24.3-47.7,53.4,2.8Z"/>
    </g>
    <circle id="Ellipse_17" data-name="Ellipse 17" class="cls-1" cx="96.4" cy="96.4" r="96.4" transform="translate(100.6 394.1)"/>
    <path id="Path_385" data-name="Path 385" class="cls-1" d="M263.1,480.1a5.053,5.053,0,0,0-2.8-8.6L222.2,466a5.425,5.425,0,0,1-3.8-2.8l-17-34.5a4.978,4.978,0,0,0-9,0l-16.9,34.5a5.232,5.232,0,0,1-3.8,2.8l-38.1,5.5a5.082,5.082,0,0,0-2.8,8.6l27.5,26.8a5.226,5.226,0,0,1,1.5,4.4l-6.5,37.9a5.017,5.017,0,0,0,7.3,5.3l34-17.9a4.9,4.9,0,0,1,4.7,0l34,17.9a5.041,5.041,0,0,0,7.3-5.3l-6.5-37.9a4.852,4.852,0,0,1,1.5-4.4Z"/>
  </g>
</svg>
