<svg id="Group_240" data-name="Group 240" xmlns="http://www.w3.org/2000/svg" viewBox="0 0 262.102 244.3">
  <defs>
    <style>
      .cls-1, .cls-2 {
        fill: none;
        stroke-miterlimit: 10;
        stroke-width: 5px;
      }

      .cls-1 {
        stroke: #00a818;
      }

      .cls-2 {
        stroke: #00bf12;
      }
    </style>
  </defs>
  <path id="Path_347" data-name="Path 347" class="cls-1" d="M184.2,241.8H77.8a17.669,17.669,0,0,1,17.7-17.7h70.9a17.754,17.754,0,0,1,17.8,17.7"/>
  <path id="Path_348" data-name="Path 348" class="cls-1" d="M162.1,224.1H100l8.9-35.4h44.3Z"/>
  <path id="Path_349" data-name="Path 349" class="cls-1" d="M259.6,153.2H2.5V18A15.45,15.45,0,0,1,18,2.5H244A15.45,15.45,0,0,1,259.5,18l.1,135.2Z"/>
  <path id="Path_350" data-name="Path 350" class="cls-1" d="M244.1,188.7H18A15.45,15.45,0,0,1,2.5,173.2V153.3H259.6v19.9a15.578,15.578,0,0,1-15.5,15.5"/>
  <g id="Group_229" data-name="Group 229">
    <path id="Path_351" data-name="Path 351" class="cls-1" d="M219.7,135.5H153.2a4.375,4.375,0,0,1-4.4-4.4,4.439,4.439,0,0,1,4.4-4.4h66.5a4.375,4.375,0,0,1,4.4,4.4,4.439,4.439,0,0,1-4.4,4.4"/>
    <path id="Path_352" data-name="Path 352" class="cls-1" d="M86.7,108.9H42.4a4.375,4.375,0,0,1-4.4-4.4,4.439,4.439,0,0,1,4.4-4.4H86.7a4.4,4.4,0,0,1,0,8.8"/>
    <path id="Path_353" data-name="Path 353" class="cls-1" d="M197.5,108.9H131a4.375,4.375,0,0,1-4.4-4.4,4.439,4.439,0,0,1,4.4-4.4h66.5a4.375,4.375,0,0,1,4.4,4.4,4.313,4.313,0,0,1-4.4,4.4"/>
    <path id="Path_354" data-name="Path 354" class="cls-1" d="M108.9,108.9a3.287,3.287,0,0,1-1.7-.4,4.125,4.125,0,0,1-2.8-4,4.387,4.387,0,0,1,1.3-3.1,3.766,3.766,0,0,1,1.5-.9,4.459,4.459,0,0,1,4.8.9,4.572,4.572,0,0,1,1.3,3.1,4.387,4.387,0,0,1-1.3,3.1,4.572,4.572,0,0,1-3.1,1.3"/>
    <path id="Path_355" data-name="Path 355" class="cls-1" d="M131,135.5H64.6a4.375,4.375,0,0,1-4.4-4.4,4.439,4.439,0,0,1,4.4-4.4H131a4.4,4.4,0,0,1,0,8.8"/>
    <path id="Path_356" data-name="Path 356" class="cls-2" d="M42.4,135.5a3.287,3.287,0,0,1-1.7-.4,5.968,5.968,0,0,1-1.5-.9,4.572,4.572,0,0,1-1.3-3.1,3.287,3.287,0,0,1,.4-1.7,4.153,4.153,0,0,1,4.9-2.7,1.135,1.135,0,0,1,.8.3,2.994,2.994,0,0,1,.8.4c.3.2.5.4.7.5a3.766,3.766,0,0,1,.9,1.5,4.711,4.711,0,0,1,.4,1.7,4.387,4.387,0,0,1-1.3,3.1,1.794,1.794,0,0,1-.7.5,2.01,2.01,0,0,1-.8.4c-.3.1-.5.2-.8.3-.2,0-.5.1-.8.1"/>
    <path id="Path_357" data-name="Path 357" class="cls-1" d="M219.7,108.9a1.949,1.949,0,0,1-.8-.1,1.135,1.135,0,0,1-.8-.3,2.994,2.994,0,0,1-.8-.4,1.794,1.794,0,0,0-.7-.5,4.572,4.572,0,0,1-1.3-3.1,4.387,4.387,0,0,1,1.3-3.1l.7-.5a2.994,2.994,0,0,1,.8-.4c.3-.1.5-.2.8-.3a4.529,4.529,0,0,1,4,1.2,1.794,1.794,0,0,1,.5.7,2.01,2.01,0,0,1,.4.8c.1.3.2.5.3.8,0,.3.1.6.1.8a2.768,2.768,0,0,1-.1.9,1.33,1.33,0,0,1-.3.8,2.994,2.994,0,0,1-.4.8,1.794,1.794,0,0,0-.5.7,1.794,1.794,0,0,1-.7.5,2.994,2.994,0,0,1-.8.4c-.3.1-.5.2-.8.3a2.7,2.7,0,0,0-.9,0"/>
    <path id="Path_358" data-name="Path 358" class="cls-1" d="M219.7,55.7H153.2a4.375,4.375,0,0,1-4.4-4.4,4.439,4.439,0,0,1,4.4-4.4h66.5a4.375,4.375,0,0,1,4.4,4.4,4.439,4.439,0,0,1-4.4,4.4"/>
    <path id="Path_359" data-name="Path 359" class="cls-1" d="M219.7,82.3H175.4a4.375,4.375,0,0,1-4.4-4.4,4.439,4.439,0,0,1,4.4-4.4h44.3a4.375,4.375,0,0,1,4.4,4.4,4.439,4.439,0,0,1-4.4,4.4"/>
    <path id="Path_360" data-name="Path 360" class="cls-1" d="M139.9,82.3H131a4.375,4.375,0,0,1-4.4-4.4,4.439,4.439,0,0,1,4.4-4.4h8.9a4.4,4.4,0,0,1,0,8.8"/>
    <path id="Path_361" data-name="Path 361" class="cls-1" d="M197.5,29.1H131a4.375,4.375,0,0,1-4.4-4.4,4.439,4.439,0,0,1,4.4-4.4h66.5a4.4,4.4,0,0,1,0,8.8"/>
    <path id="Path_362" data-name="Path 362" class="cls-1" d="M219.7,29.1a1.949,1.949,0,0,1-.8-.1,1.136,1.136,0,0,1-.8-.3,2.994,2.994,0,0,1-.8-.4,1.794,1.794,0,0,0-.7-.5,4.572,4.572,0,0,1-1.3-3.1,4.387,4.387,0,0,1,1.3-3.1l.7-.5a2.994,2.994,0,0,1,.8-.4c.3-.1.5-.2.8-.3a4.529,4.529,0,0,1,4,1.2,1.794,1.794,0,0,1,.5.7,2.01,2.01,0,0,1,.4.8c.1.3.2.5.3.8,0,.3.1.6.1.8a3.085,3.085,0,0,1-.1.9,1.33,1.33,0,0,1-.3.8,2.994,2.994,0,0,1-.4.8,1.794,1.794,0,0,0-.5.7,1.794,1.794,0,0,1-.7.5,2.994,2.994,0,0,1-.8.4c-.3.1-.5.2-.8.3a2.7,2.7,0,0,0-.9,0"/>
    <path id="Path_363" data-name="Path 363" class="cls-1" d="M135.5,55.7a4.387,4.387,0,0,1-3.1-1.3,3.766,3.766,0,0,1-.9-1.5,4.711,4.711,0,0,1-.4-1.7,3.287,3.287,0,0,1,.4-1.7,5.968,5.968,0,0,1,.9-1.5,4.529,4.529,0,0,1,4-1.2,1.135,1.135,0,0,1,.8.3,2.994,2.994,0,0,1,.8.4c.3.2.5.4.7.5a3.956,3.956,0,0,1,1,1.5,4.711,4.711,0,0,1,.4,1.7,3.287,3.287,0,0,1-.4,1.7,4.366,4.366,0,0,1-1,1.5,1.794,1.794,0,0,1-.7.5,2.01,2.01,0,0,1-.8.4c-.3.1-.5.2-.8.3-.4,0-.7.1-.9.1"/>
    <path id="Path_364" data-name="Path 364" class="cls-1" d="M157.6,82.3a4.387,4.387,0,0,1-3.1-1.3,4.572,4.572,0,0,1-1.3-3.1,4.387,4.387,0,0,1,1.3-3.1,4.734,4.734,0,0,1,6.3,0,4.572,4.572,0,0,1,1.3,3.1,2.768,2.768,0,0,1-.1.9,1.33,1.33,0,0,1-.3.8,2.994,2.994,0,0,1-.4.8,1.794,1.794,0,0,0-.5.7,5.26,5.26,0,0,1-3.2,1.2"/>
  </g>
  <path id="Path_365" data-name="Path 365" class="cls-1" d="M42.4,82.3h62V20.2h-62Z"/>
</svg>
