<svg xmlns="http://www.w3.org/2000/svg" xmlns:xlink="http://www.w3.org/1999/xlink" viewBox="0 0 1920 1080">
  <defs>
    <style>
      .cls-1 {
        fill: #fff;
      }

      .cls-2 {
        fill: url(#linear-gradient);
      }
    </style>
    <linearGradient id="linear-gradient" x1="0.91" y1="0.026" x2="0.173" y2="0.606" gradientUnits="objectBoundingBox">
      <stop offset="0" stop-color="#8ab4ff"/>
      <stop offset="1" stop-color="#5174b2"/>
    </linearGradient>
  </defs>
  <g id="Group_199" data-name="Group 199" transform="translate(-2147 -643.501)">
    <rect id="Rectangle_58" data-name="Rectangle 58" class="cls-1" width="1920" height="1079.501" transform="translate(2147 644)"/>
    <path id="Subtraction_7" data-name="Subtraction 7" class="cls-2" d="M932.51,923.1a109.472,109.472,0,0,1-29.583-4.111c-33.228-9.334-64.274-40.35-97.143-73.186-22.532-22.51-45.829-45.784-71.221-63.464a212.4,212.4,0,0,0-19.451-12.106,161.3,161.3,0,0,0-20.344-9.394,131.663,131.663,0,0,0-21.354-6.079,119.078,119.078,0,0,0-22.483-2.161,123.38,123.38,0,0,0-26.437,2.928c-17.05,3.749-32.665,7.646-47.766,11.414-17.129,4.275-33.307,8.313-48.176,11.221-16.5,3.227-29.667,4.731-41.448,4.732h-.014a102.349,102.349,0,0,1-30.154-4.145,84.967,84.967,0,0,1-13.982-5.653,90.257,90.257,0,0,1-13.383-8.458,110.491,110.491,0,0,1-12.885-11.578A149.524,149.524,0,0,1,404.2,738.054,215.6,215.6,0,0,1,392,719.3c-4.023-6.9-8.061-14.58-12-22.814-28.1-58.731-66.2-87.967-99.816-113.761l-.015-.012c-9.433-7.238-18.342-14.074-26.682-21.274a175.833,175.833,0,0,1-22.738-23.05,116.233,116.233,0,0,1-16.908-28.178,121.714,121.714,0,0,1-5.682-17.065,146.377,146.377,0,0,1-3.523-19.608,140.782,140.782,0,0,1-.81-18.158,181.721,181.721,0,0,1,1.352-18.747,274.539,274.539,0,0,1,7.849-38.64c7.068-26.059,17.133-52.237,26.866-77.554l.009-.022c11.921-31,23.18-60.289,26.783-84.311,4.02-26.8-1.964-43.82-18.833-53.558-7.74-4.469-16.824-8.15-28.589-11.586-10.482-3.061-21.706-5.526-33.588-8.136l-.013,0c-16.27-3.574-33.093-7.269-50.232-12.94a227.166,227.166,0,0,1-25.7-10.174,186.069,186.069,0,0,1-25.268-14.37,176.418,176.418,0,0,1-24.223-19.861A194.653,194.653,0,0,1,37.679,78.831,245.4,245.4,0,0,1,17.394,44.1,339.728,339.728,0,0,1,0,0H981.236V912.414a133.184,133.184,0,0,1-23.276,7.746,113.864,113.864,0,0,1-25.448,2.941h0Z" transform="translate(3085.265 643.501)"/>
  </g>
</svg>
