<svg xmlns="http://www.w3.org/2000/svg" viewBox="0 0 208.9 272.9">
  <defs>
    <style>
      .cls-1 {
        fill: none;
        stroke: #ff4343;
        stroke-miterlimit: 10;
        stroke-width: 5px;
      }
    </style>
  </defs>
  <g id="Group_239" data-name="Group 239" transform="translate(-589.4 -388.1)">
    <g id="Group_238" data-name="Group 238">
      <g id="Group_237" data-name="Group 237">
        <path id="Path_386" data-name="Path 386" class="cls-1" d="M755.8,564.6c-.2,0-31,.9-35.6-32.2a60.57,60.57,0,0,0,13.9-13.8c8-10.9,13.2-24.6,15.1-39.3a6.228,6.228,0,0,0,1.5-2.1,65.984,65.984,0,0,0,5-25.3c0-33.8-25.5-61.3-56.8-61.3a52.837,52.837,0,0,0-23.6,5.6,38.9,38.9,0,0,0-8.4,1.5c-12.9,3.7-23.3,13.3-29.5,26.9-6,13.2-7.1,28.8-3.3,43.8a59.687,59.687,0,0,0,3.1,9.3,5.956,5.956,0,0,0,1.4,2.1c3,23.1,14,42.2,28.9,52.6-4.6,33.1-35.4,32.2-35.6,32.2a41.471,41.471,0,0,0-40,41.4v46.5a6.018,6.018,0,0,0,6,6H789.8a6.018,6.018,0,0,0,6-6V606A41.4,41.4,0,0,0,755.8,564.6ZM755,461.3c-4.8-4.9-22.9-14.8-30.2-14.8H683.7a11.433,11.433,0,0,1-6.7-2.2,10.952,10.952,0,0,1-3.7-4.8,7.284,7.284,0,0,0-7.3-4.6,7.36,7.36,0,0,0-6.7,5.5c-2.4,9.2-17.2,27.1-23.7,33.9m7.9,88.3,39.6,56.2a13.229,13.229,0,0,0,10.7,5.6h0a12.956,12.956,0,0,0,10.7-5.6l38.9-56.2M603.9,605.9m179.8,0"/>
      </g>
    </g>
  </g>
</svg>
