<svg xmlns="http://www.w3.org/2000/svg" viewBox="0 0 517 517"><defs><style>.cls-1{fill:none;stroke:#7c2489;stroke-miterlimit:10;stroke-width:5px;}</style></defs><title>Asset 2</title><g id="Layer_2" data-name="Layer 2"><g id="Layer_1-2" data-name="Layer 1"><path class="cls-1" d="M143.08,192.28C111.53,188,74.73,201.63,49.32,227L6.89,269.47a15,15,0,0,0,14.49,25.1C48.3,287.35,77.24,282.31,86,289"/><path class="cls-1" d="M227,431c5.54,7.55,2.41,22.57-4.05,66.31a15,15,0,0,0,25.44,12.8l42.42-42.43c24-24,36.93-60.69,33-93.54"/><path class="cls-1" d="M90.77,278.76Q201.19,70.35,355.51,19.11"/><path class="cls-1" d="M498.06,161.24c-33.94,102.25-120.49,191.34-258.8,266"/><path class="cls-1" d="M498.06,161.24c-33.94,102.25-120.49,191.34-258.8,266"/><path class="cls-1" d="M381.39,137.06l-.64-.64A75,75,0,0,0,274.69,242.48l.63.64c29.28,28.43,76.37,28.43,105.43-.64S409.82,166.33,381.39,137.06Z"/><path class="cls-1" d="M498.06,161.24c-32.45-2.33-67.24-17.61-95.46-45.4l-.63-.63c-28.43-28.43-44.34-63.43-46.46-96.1a295.49,295.49,0,0,1,29.7-8.48C421.48,2.35,459.46.44,498.91,4.69a13.59,13.59,0,0,1,9.55,5.3,12.57,12.57,0,0,1,3.82,8.06,336.86,336.86,0,0,1-6.16,113.49C503.79,141.51,501.25,151.27,498.06,161.24Z"/><path class="cls-1" d="M508.46,10a12.62,12.62,0,0,1,3.82,8.06,336.84,336.84,0,0,1-6.16,113.49c-2.33,10-4.87,19.73-8.06,29.7-32.45-2.33-67.24-17.61-95.46-45.4"/><path class="cls-1" d="M236.71,295.31a14.13,14.13,0,0,0-4.24-9.34,13.88,13.88,0,0,0-10.81-5.72c-55.16-.43-67.47,19.09-70.65,22.27-91.85,91.85-92.91,137-92.91,141.7a15.58,15.58,0,0,0,4.45,10.4,1.12,1.12,0,0,0,.86.42,12.88,12.88,0,0,0,8.26,3.61c7.64.85,50.7-.21,143-92.49C235.44,345.37,236.93,326.07,236.71,295.31Z"/><path class="cls-1" d="M232.48,286a14.17,14.17,0,0,1,4.23,9.34c.22,30.76-1.27,50.06-22.06,70.85-92.28,92.28-135.34,93.34-143,92.49A12.89,12.89,0,0,1,63.41,455"/><path class="cls-1" d="M196.12,384.11,239,427Z"/><path class="cls-1" d="M91,279l41,41Z"/><path class="cls-1" d="M94.4,367.25,71,344a19,19,0,0,1-3.32-22.45L91,278"/><path class="cls-1" d="M151.3,423.15l23.26,23.36A19,19,0,0,0,197,449.83l43.54-23.28"/></g></g></svg>